<?xml version="1.0" encoding="utf-8"?>
<!-- Generator: Adobe Illustrator 24.0.0, SVG Export Plug-In . SVG Version: 6.00 Build 0)  -->
<svg version="1.1" id="Laag_1" xmlns="http://www.w3.org/2000/svg" xmlns:xlink="http://www.w3.org/1999/xlink" x="0px" y="0px"
	 viewBox="0 0 399.2 74.7" style="enable-background:new 0 0 399.2 74.7;" xml:space="preserve">
<g>
	<path d="M116.1,19.4c0,21.1-17.1,38.1-38.1,38.1c-21,0-38.1-17-38.1-38.1H116.1z"/>
	<g>
		<path d="M179.6,44.8l-0.6,0.7c-1,1.1-2.2,2.2-3.3,3.1c-1.1,0.9-2.5,1.7-3.8,2.3c-1.4,0.7-2.9,1.2-4.5,1.5
			c-1.5,0.3-3.4,0.5-5.3,0.5c-3.1,0-5.9-0.5-8.5-1.7c-2.6-1.1-4.8-2.6-6.7-4.6c-1.9-1.9-3.4-4.3-4.5-6.9c-1-2.6-1.5-5.5-1.5-8.5
			c0-3,0.5-5.8,1.5-8.4c1-2.6,2.6-4.9,4.4-7c1.9-2,4.3-3.5,6.9-4.7c2.6-1.1,5.5-1.7,8.7-1.7c1.9,0,3.7,0.2,5.2,0.5
			c1.5,0.3,3,0.8,4.4,1.4c1.3,0.6,2.6,1.3,3.7,2c1.1,0.9,2.1,1.7,3.1,2.6l0.7,0.6l-5.8,6.7l-0.7-0.7c-1.5-1.5-3.2-2.6-4.9-3.4
			c-1.7-0.9-3.6-1.3-5.7-1.3c-1.8,0-3.4,0.3-4.9,1c-1.5,0.7-2.8,1.6-3.9,2.8c-1.1,1.2-2,2.6-2.6,4.2s-0.9,3.4-0.9,5.3
			c0,1.9,0.3,3.7,0.9,5.3c0.6,1.6,1.5,3,2.6,4.3c1.1,1.2,2.4,2.1,3.9,2.8c1.5,0.7,3.2,1,4.9,1c2.2,0,4.2-0.4,5.8-1.3
			c1.7-0.9,3.4-2.1,5-3.7l0.7-0.6L179.6,44.8z"/>
		<path d="M212,29.6c-0.9-2-2-3.8-3.6-5.3c-1.5-1.5-3.3-2.7-5.4-3.6c-2.1-0.9-4.4-1.4-6.8-1.4c-2.5,0-4.7,0.5-6.8,1.4
			c-2,0.9-3.8,2.1-5.4,3.7c-1.5,1.5-2.7,3.3-3.6,5.4c-0.9,2-1.3,4.3-1.3,6.6s0.4,4.4,1.3,6.5c0.9,2,2,3.8,3.6,5.3s3.3,2.7,5.4,3.6
			c2.1,0.9,4.4,1.3,6.7,1.3s4.7-0.4,6.8-1.4c2.1-0.9,3.9-2.1,5.5-3.6c1.5-1.5,2.7-3.3,3.6-5.3c0.9-2,1.3-4.3,1.3-6.6
			C213.3,33.9,212.9,31.7,212,29.6z M203.8,39.7c-0.3,1-0.9,2-1.6,2.7c-0.7,0.8-1.5,1.4-2.6,1.9s-2.1,0.7-3.4,0.7
			c-1.2,0-2.3-0.2-3.2-0.7c-1-0.5-1.9-1.1-2.6-1.9c-0.7-0.9-1.3-1.7-1.7-2.8s-0.6-2.2-0.6-3.5c0-1.2,0.2-2.3,0.6-3.4
			c0.3-1,0.9-2,1.6-2.7s1.5-1.5,2.6-1.9c1-0.5,2.1-0.7,3.3-0.7c1.2,0,2.3,0.3,3.3,0.7c1,0.4,1.9,1.1,2.6,1.9
			c0.7,0.9,1.3,1.8,1.7,2.9c0.4,1,0.6,2.2,0.6,3.4C204.4,37.5,204.3,38.6,203.8,39.7z"/>
		<g>
			<rect x="216" y="8.9" width="9.4" height="8.5"/>
			<rect x="216.4" y="20" width="9" height="32.2"/>
		</g>
		<path d="M258.9,32v20.2h-9V34.1c0-2.1-0.5-3.8-1.5-4.8c-0.9-1.1-2.2-1.6-4-1.6s-3.1,0.6-4.2,1.7c-1,1.1-1.5,2.7-1.5,4.9v18h-9V20
			h9v3c0.6-0.7,1.4-1.4,2.2-1.9c0.9-0.5,1.8-0.9,2.8-1.3c1-0.3,2.1-0.5,3.4-0.5c3.7,0,6.6,1.2,8.6,3.5
			C257.8,25.2,258.9,28.2,258.9,32z"/>
		<g>
			<rect x="263" y="8.9" width="9.5" height="8.5"/>
			<rect x="263.3" y="20" width="9" height="32.2"/>
		</g>
		<path d="M325.4,20.3l-12.5,32.2c-0.7,1.6-1.4,3-2,4.1c-0.7,1.1-1.5,2.1-2.4,2.9c-0.9,0.7-1.9,1.3-2.9,1.6c-1,0.3-2.2,0.5-3.6,0.5
			c-1.5,0-2.9-0.2-4.1-0.6c-1.3-0.3-2.4-0.9-3.5-1.5l-0.9-0.3l3.2-7l0.9,0.5c0.6,0.3,1.2,0.6,1.8,0.8c0.6,0.2,1.1,0.3,1.8,0.3
			c0.9,0,1.5-0.2,1.9-0.5c0.3-0.3,0.9-0.9,1.4-2L294.7,28h-7.5v24.3h-8.9V27.9h-3.8v-7.7h3.8v-1.3c0-3.6,0.9-6.3,2.6-8.1
			c1.8-1.8,4.4-2.7,7.6-2.7c1.3,0,2.4,0.1,3.3,0.3c0.9,0.2,1.8,0.3,2.6,0.6l0.7,0.3v7.9l-1.3-0.4c-0.7-0.3-1.3-0.3-1.9-0.5
			c-0.6-0.1-1.2-0.2-1.9-0.2c-1.5,0-3.1,0.4-3.1,3.7v0.7h13.9l7.9,20.4l7.3-20.4C316,20.3,325.4,20.3,325.4,20.3z"/>
	</g>
</g>
</svg>
