<svg width="512" height="512" viewBox="0 0 512 512" fill="none" xmlns="http://www.w3.org/2000/svg">
<g clip-path="url(#clip0)">
<path d="M23.1211 335.996C26.6172 338.227 31.3945 337.168 33.6211 333.676C53.7187 302.191 85.1523 281.414 97.7383 273.941C101.918 271.461 102.684 265.523 99.2656 262.062C84.418 247.031 76.2422 227.121 76.2422 206C76.2422 162.004 112.035 126.207 156.031 126.207C177.531 126.207 197.691 134.633 212.801 149.934C215.754 152.918 220.566 152.949 223.555 150C226.543 147.047 226.574 142.234 223.621 139.246C205.633 121.031 181.629 111 156.031 111C103.648 111 61.0351 153.617 61.0351 206C61.0351 219.539 63.8672 232.66 69.2305 244.684C67.0586 244.887 64.7422 245.18 62.3633 245.609C43.3008 249.047 36.0859 258.102 33.3867 265.094C29.2109 275.906 31.4258 286.438 39.6172 294.75C40.7109 295.863 41.8398 296.855 42.9531 297.742C35.0703 305.867 27.4258 315.113 20.8008 325.496C18.543 329.035 19.582 333.738 23.1211 335.996ZM47.5742 270.57C51.0781 261.496 68.1484 259.52 77.4844 259.457C78.9531 261.602 80.5039 263.695 82.1523 265.727C74.039 271 64.168 278.141 54.1094 287.082C52.9297 286.285 51.6406 285.285 50.4492 284.078C46.4297 279.996 45.543 275.832 47.5742 270.57Z" fill="#171EB6"/>
<path d="M111.41 200.734C111.41 207.129 116.609 212.328 123.004 212.328C129.395 212.328 134.594 207.129 134.594 200.734C134.594 194.344 129.395 189.145 123.004 189.145C116.609 189.145 111.41 194.344 111.41 200.734Z" fill="#171EB6"/>
<path d="M177.465 200.734C177.465 207.129 182.668 212.328 189.059 212.328C195.453 212.328 200.652 207.129 200.652 200.734C200.652 194.344 195.453 189.145 189.059 189.145C182.668 189.145 177.465 194.344 177.465 200.734Z" fill="#171EB6"/>
<path d="M311.348 200.734C311.348 207.129 316.547 212.328 322.941 212.328C329.332 212.328 334.535 207.129 334.535 200.734C334.535 194.344 329.332 189.145 322.941 189.145C316.547 189.145 311.348 194.344 311.348 200.734Z" fill="#171EB6"/>
<path d="M377.406 200.734C377.406 207.129 382.605 212.328 388.996 212.328C395.391 212.328 400.59 207.129 400.59 200.734C400.59 194.344 395.391 189.145 388.996 189.145C382.605 189.145 377.406 194.344 377.406 200.734Z" fill="#171EB6"/>
<path d="M362.864 223.043C362.258 224.113 359.852 225.813 355.969 225.813C352.086 225.813 349.68 224.113 349.074 223.043C347.008 219.387 342.367 218.098 338.711 220.164C335.059 222.231 333.766 226.871 335.832 230.524C339.492 237 347.207 241.02 355.969 241.02C364.731 241.02 372.446 237 376.106 230.524C378.172 226.871 376.879 222.231 373.227 220.164C369.567 218.098 364.93 219.387 362.864 223.043V223.043Z" fill="#171EB6"/>
<path d="M162.926 223.043C162.321 224.113 159.914 225.813 156.031 225.813C152.149 225.813 149.742 224.113 149.137 223.043C147.071 219.387 142.43 218.098 138.774 220.164C135.121 222.231 133.828 226.871 135.895 230.524C139.555 237 147.27 241.02 156.031 241.02C164.793 241.02 172.508 237 176.168 230.524C178.235 226.871 176.942 222.231 173.289 220.164C169.629 218.098 164.992 219.387 162.926 223.043Z" fill="#171EB6"/>
<path d="M464.387 293.121C461.367 290.207 456.555 290.293 453.637 293.312C450.719 296.332 450.805 301.148 453.824 304.062C480.059 329.395 494.395 356.934 496.516 386.02H460.133C457.797 370.652 449.785 353.031 449.391 352.164C447.637 348.348 443.125 346.672 439.312 348.422C435.492 350.172 433.816 354.684 435.562 358.5C437.766 363.309 442.738 375.672 444.723 386.02H311.812C309.988 357.309 297.805 329.98 275.508 304.68C259.809 286.863 242.207 273.75 229.902 265.734C230.262 265.293 230.594 264.84 230.945 264.395L292.512 274.902C295.711 275.445 299.039 273.793 300.535 270.918C302.027 268.043 301.48 264.367 299.203 262.062C284.355 247.031 276.18 227.121 276.18 206C276.18 162.004 311.973 126.207 355.969 126.207C399.965 126.207 435.758 162.004 435.758 206C435.758 227.121 427.582 247.031 412.738 262.062C409.316 265.523 410.086 271.461 414.266 273.945C419.949 277.316 425.688 281.113 431.32 285.219C434.672 287.66 439.504 286.898 441.945 283.555C444.418 280.16 443.672 275.402 440.281 272.93C436.832 270.414 433.34 268.008 429.844 265.73C443.527 248.867 450.969 227.984 450.969 205.996C450.969 153.617 408.352 111 355.969 111C303.586 111 260.973 153.617 260.973 205.996C260.973 224.156 266.047 241.562 275.523 256.574L239.977 250.508C247.184 236.953 251.027 221.762 251.027 206C251.027 192.219 248.141 178.926 242.445 166.488C240.695 162.668 236.18 160.992 232.367 162.738C228.547 164.488 226.871 169 228.617 172.816C233.398 183.254 235.82 194.418 235.82 206C235.82 222.543 230.785 238.332 221.477 251.625C221.398 251.734 221.32 251.84 221.25 251.953C218.73 255.512 215.922 258.898 212.801 262.062C209.379 265.523 210.148 271.461 214.328 273.941C225.16 280.375 246.027 294.227 264.098 314.73C283.836 337.133 294.738 361.078 296.578 386.02H260.195C257.859 370.652 249.848 353.031 249.453 352.164C247.703 348.348 243.191 346.672 239.375 348.422C235.559 350.172 233.879 354.684 235.629 358.5C237.828 363.309 242.801 375.672 244.785 386.02H67.2773C69.2617 375.672 74.2344 363.309 76.4375 358.5C78.1836 354.684 76.5078 350.172 72.6914 348.422C68.875 346.672 64.3594 348.348 62.6094 352.164C62.2148 353.031 54.2031 370.652 51.8672 386.02H15.4922C16.1602 377.031 18.0117 368.113 21.0195 359.422C22.3945 355.453 20.293 351.121 16.3242 349.75C12.3594 348.375 8.02734 350.477 6.65234 354.445C2.23828 367.188 0 380.367 0 393.625C0 397.824 3.40625 401.227 7.60547 401.227H504.395C508.594 401.227 512 397.824 512 393.625C512 357.949 495.535 323.199 464.387 293.121V293.121Z" fill="#171EB6"/>
</g>
<defs>
<clipPath id="clip0">
<rect width="512" height="512" fill="white"/>
</clipPath>
</defs>
</svg>
