<svg width="512" height="512" viewBox="0 0 512 512" fill="none" xmlns="http://www.w3.org/2000/svg">
<path d="M352.333 256L416.333 256C445.752 256 469.666 279.936 469.666 309.333L469.666 373.333C469.667 402.731 445.752 426.667 416.333 426.667L352.333 426.667C322.915 426.667 299 402.731 299 373.333L299 309.333C299 279.936 322.914 256 352.333 256ZM416.333 405.333C433.976 405.333 448.333 390.976 448.333 373.333L448.333 309.333C448.333 291.691 433.976 277.333 416.333 277.333L352.333 277.333C334.69 277.333 320.333 291.691 320.333 309.333L320.333 373.333C320.333 390.976 334.69 405.333 352.333 405.333L416.333 405.333Z" fill="#171EB6"/>
<path d="M416.333 85.0001L459 85.0001C464.888 85.0001 469.666 89.7787 469.666 95.6667C469.666 101.555 464.888 106.333 459 106.333L416.333 106.333C363.405 106.333 320.333 149.405 320.333 202.333L320.333 309C320.333 314.888 315.554 319.667 309.666 319.667C303.778 319.667 299 314.888 299 309L299 202.333C299 137.629 351.65 85.0001 416.333 85.0001Z" fill="#171EB6"/>
<path d="M96.3332 256L160.333 256C189.752 256 213.666 279.936 213.666 309.333L213.666 373.333C213.667 402.731 189.752 426.667 160.333 426.667L96.3332 426.667C66.9145 426.667 42.9998 402.731 42.9998 373.333L42.9998 309.333C42.9998 279.936 66.9145 256 96.3332 256ZM160.333 405.333C177.976 405.333 192.333 390.976 192.333 373.333L192.333 309.333C192.333 291.691 177.976 277.333 160.333 277.333L96.3332 277.333C78.6905 277.333 64.3332 291.691 64.3332 309.333L64.3332 373.333C64.3332 390.976 78.6905 405.333 96.3332 405.333L160.333 405.333Z" fill="#171EB6"/>
<path d="M160 85.3333L202.666 85.3333C208.554 85.3333 213.333 90.112 213.333 96C213.333 101.888 208.554 106.667 202.666 106.667L160 106.667C107.072 106.667 63.9997 149.739 63.9997 202.667L63.9997 309.333C63.9997 315.221 59.221 320 53.333 320C47.445 320 42.6663 315.221 42.6663 309.333L42.6663 202.667C42.6663 137.963 95.317 85.3333 160 85.3333Z" fill="#171EB6"/>
</svg>
