<svg width="512" height="512" viewBox="0 0 512 512" fill="none" xmlns="http://www.w3.org/2000/svg">
<path d="M160 256H95.9998C66.5812 256 42.6665 232.064 42.6665 202.667V138.667C42.6665 109.269 66.5812 85.3333 95.9998 85.3333H160C189.419 85.3333 213.333 109.269 213.333 138.667V202.667C213.333 232.064 189.419 256 160 256ZM95.9998 106.667C78.3572 106.667 63.9998 121.024 63.9998 138.667V202.667C63.9998 220.309 78.3572 234.667 95.9998 234.667H160C177.643 234.667 192 220.309 192 202.667V138.667C192 121.024 177.643 106.667 160 106.667H95.9998Z" fill="#171EB6"/>
<path d="M95.9998 426.667H53.3332C47.4452 426.667 42.6665 421.888 42.6665 416C42.6665 410.112 47.4452 405.333 53.3332 405.333H95.9998C148.928 405.333 192 362.261 192 309.333V202.667C192 196.779 196.779 192 202.667 192C208.555 192 213.333 196.779 213.333 202.667V309.333C213.333 374.037 160.683 426.667 95.9998 426.667Z" fill="#171EB6"/>
<path d="M416 256H352C322.581 256 298.667 232.064 298.667 202.667V138.667C298.667 109.269 322.581 85.3333 352 85.3333H416C445.419 85.3333 469.333 109.269 469.333 138.667V202.667C469.333 232.064 445.419 256 416 256ZM352 106.667C334.357 106.667 320 121.024 320 138.667V202.667C320 220.309 334.357 234.667 352 234.667H416C433.643 234.667 448 220.309 448 202.667V138.667C448 121.024 433.643 106.667 416 106.667H352Z" fill="#171EB6"/>
<path d="M352 426.667H309.333C303.445 426.667 298.667 421.888 298.667 416C298.667 410.112 303.445 405.333 309.333 405.333H352C404.928 405.333 448 362.261 448 309.333V202.667C448 196.779 452.779 192 458.667 192C464.555 192 469.333 196.779 469.333 202.667V309.333C469.333 374.037 416.683 426.667 352 426.667Z" fill="#171EB6"/>
</svg>
