<svg width="512" height="512" viewBox="0 0 512 512" fill="none" xmlns="http://www.w3.org/2000/svg">
<path d="M165.504 137.48C167.922 137.48 170.348 136.609 172.27 134.844C172.406 134.719 172.551 134.578 172.68 134.445C176.586 130.543 176.586 124.211 172.68 120.305C168.774 116.398 162.445 116.398 158.539 120.305C158.527 120.316 158.508 120.332 158.488 120.352C154.66 124.113 154.481 130.266 158.137 134.246C160.109 136.395 162.805 137.48 165.504 137.48Z" fill="#171EB6"/>
<path d="M256.004 80C234.16 80 212.398 85.2422 193.07 95.1562C188.156 97.6758 186.219 103.703 188.738 108.617C191.258 113.531 197.285 115.473 202.199 112.953C218.953 104.359 237.055 100 256.004 100C321.066 100 374.004 152.938 374.004 218.004C374.004 242.008 366.836 265.105 353.281 284.805C351.168 287.879 349.004 290.992 346.82 294.141C324.137 326.812 298.691 363.477 294.59 400H217.414C213.313 363.477 187.867 326.812 165.184 294.141C162.996 290.992 160.836 287.879 158.719 284.805C145.168 265.105 138 242.008 138 218.004C138 196.035 144.078 174.602 155.57 156.02C158.477 151.324 157.023 145.164 152.328 142.258C147.629 139.348 141.469 140.805 138.562 145.5C125.109 167.242 118 192.312 118 218.004C118 246.07 126.383 273.094 142.246 296.145C144.375 299.242 146.555 302.375 148.758 305.547C170.164 336.375 194.203 371.016 197.582 402.629C190.695 406.348 186.004 413.637 186.004 422V458C186.004 466.531 190.887 473.937 198 477.586V486C198 500.336 209.664 512 224 512H288.004C302.34 512 314.004 500.336 314.004 486V477.586C321.117 473.937 326 466.531 326 458V422C326 413.637 321.309 406.348 314.422 402.629C317.805 371.016 341.844 336.375 363.246 305.547C365.449 302.375 367.629 299.238 369.758 296.145C385.621 273.094 394.004 246.074 394.004 218.004C394.004 141.91 332.098 80 256.004 80V80ZM306 422V430H274.969C269.445 430 264.969 434.477 264.969 440C264.969 445.52 269.445 450 274.969 450H306V458C306 459.086 305.086 460 304.004 460H208C206.918 460 206.004 459.086 206.004 458V422C206.004 420.914 206.918 420 208 420H304.004C305.086 420 306 420.914 306 422ZM288.004 492H224C220.75 492 218 489.254 218 486V480H294.004V486C294.004 489.254 291.254 492 288.004 492V492Z" fill="#171EB6"/>
<path d="M256.004 51.6797C261.523 51.6797 266.004 47.1992 266.004 41.6797V10C266.004 4.47656 261.523 0 256.004 0C250.48 0 246.004 4.47656 246.004 10V41.6797C246.004 47.1992 250.48 51.6797 256.004 51.6797Z" fill="#171EB6"/>
<path d="M124.25 100.395C126.203 102.344 128.762 103.324 131.32 103.324C133.879 103.324 136.441 102.344 138.395 100.395C142.297 96.4883 142.297 90.1562 138.395 86.25L115.992 63.8516C112.086 59.9492 105.758 59.9492 101.852 63.8516C97.9453 67.7578 97.9453 74.0898 101.852 77.9961L124.25 100.395Z" fill="#171EB6"/>
<path d="M79.6797 208.004H48C42.4766 208.004 38 212.48 38 218.004C38 223.523 42.4766 228.004 48 228.004H79.6797C85.1992 228.004 89.6797 223.523 89.6797 218.004C89.6797 212.48 85.1992 208.004 79.6797 208.004Z" fill="#171EB6"/>
<path d="M124.25 335.613L101.852 358.012C97.9453 361.914 97.9453 368.246 101.852 372.152C103.805 374.105 106.363 375.082 108.922 375.082C111.48 375.082 114.039 374.105 115.992 372.152L138.395 349.754C142.297 345.852 142.297 339.52 138.395 335.613C134.488 331.707 128.156 331.707 124.25 335.613Z" fill="#171EB6"/>
<path d="M387.754 335.613C383.848 331.707 377.52 331.707 373.609 335.613C369.707 339.516 369.707 345.848 373.609 349.754L396.008 372.152C397.961 374.105 400.523 375.082 403.082 375.082C405.641 375.082 408.199 374.105 410.152 372.152C414.055 368.25 414.055 361.918 410.152 358.012L387.754 335.613Z" fill="#171EB6"/>
<path d="M464.004 208.004H432.328C426.805 208.004 422.328 212.48 422.328 218.004C422.328 223.523 426.805 228.004 432.328 228.004H464.004C469.527 228.004 474.004 223.523 474.004 218.004C474.004 212.48 469.527 208.004 464.004 208.004V208.004Z" fill="#171EB6"/>
<path d="M396.012 63.8516L373.609 86.25C369.707 90.1562 369.707 96.4883 373.609 100.395C375.563 102.344 378.121 103.324 380.684 103.324C383.242 103.324 385.801 102.344 387.754 100.395L410.152 77.9961C414.055 74.0898 414.055 67.7578 410.152 63.8516C406.246 59.9453 399.918 59.9453 396.012 63.8516Z" fill="#171EB6"/>
<path d="M246 450H246.234C251.758 450 256.234 445.523 256.234 440C256.234 434.48 251.758 430 246.234 430H246C240.477 430 236 434.48 236 440C236 445.523 240.477 450 246 450Z" fill="#171EB6"/>
<path d="M263.07 277.93C259.164 274.023 252.832 274.023 248.926 277.93C245.023 281.836 245.023 288.168 248.926 292.07C252.832 295.977 259.164 295.977 263.07 292.07C266.977 288.168 266.977 281.836 263.07 277.93Z" fill="#171EB6"/>
<path d="M312.57 238.434C315.129 238.434 317.688 237.457 319.641 235.504C323.547 231.598 323.547 225.266 319.641 221.359C284.551 186.27 227.453 186.27 192.363 221.359C188.457 225.266 188.457 231.598 192.363 235.504C196.27 239.406 202.598 239.406 206.504 235.504C233.797 208.211 278.207 208.211 305.5 235.504C307.453 237.457 310.012 238.434 312.57 238.434Z" fill="#171EB6"/>
<path d="M284.285 266.719C286.848 266.719 289.402 265.738 291.355 263.789C295.262 259.883 295.262 253.551 291.355 249.645C271.859 230.152 240.141 230.152 220.645 249.645C216.742 253.551 216.742 259.883 220.645 263.789C224.551 267.691 230.883 267.691 234.789 263.789C246.484 252.09 265.52 252.09 277.215 263.789C279.168 265.738 281.727 266.719 284.285 266.719Z" fill="#171EB6"/>
</svg>
