<svg width="512" height="512" viewBox="0 0 512 512" fill="none" xmlns="http://www.w3.org/2000/svg">
<path d="M376.818 355.993C372.402 355.993 368.209 356.956 364.426 358.67C359.912 347.716 349.124 339.983 336.56 339.983C328.829 339.983 321.771 342.912 316.431 347.716C311.091 342.912 304.033 339.983 296.302 339.983C292.75 339.983 289.341 340.605 286.173 341.74V294.086C286.173 277.473 272.657 263.957 256.044 263.957C239.431 263.957 225.915 277.473 225.915 294.086V420.052L220.167 410.621C211.296 396.064 192.782 391.339 178.021 399.863C163.98 407.969 158.503 425.756 165.553 440.356L197.41 506.342C199.135 509.914 202.705 511.997 206.423 511.997C207.881 511.997 209.362 511.677 210.763 511C215.737 508.599 217.822 502.621 215.421 497.647L183.564 431.661C181.043 426.441 183.001 420.083 188.022 417.184C193.3 414.137 199.918 415.826 203.089 421.03L227.376 460.88C229.709 464.707 234.304 466.515 238.618 465.304C242.933 464.093 245.915 460.158 245.915 455.676V294.086C245.915 288.501 250.459 283.957 256.044 283.957C261.629 283.957 266.173 288.501 266.173 294.086V418.892C266.173 424.415 270.65 428.892 276.173 428.892C281.696 428.892 286.173 424.415 286.173 418.892V370.112C286.173 364.527 290.717 359.983 296.302 359.983C301.887 359.983 306.431 364.527 306.431 370.112V377.307V418.891C306.431 424.414 310.908 428.891 316.431 428.891C321.954 428.891 326.431 424.414 326.431 418.891V377.307V370.112C326.431 364.527 330.975 359.983 336.56 359.983C342.145 359.983 346.689 364.527 346.689 370.112V386.122V399.016V418.892C346.689 424.415 351.166 428.892 356.689 428.892C362.212 428.892 366.689 424.415 366.689 418.892V399.016V386.122C366.689 380.537 371.233 375.993 376.818 375.993C382.403 375.993 386.947 380.537 386.947 386.122V501.993C386.947 507.516 391.424 511.993 396.947 511.993C402.47 511.993 406.947 507.516 406.947 501.993V386.122C406.947 369.51 393.431 355.993 376.818 355.993Z" fill="#171EB6"/>
<path d="M256.043 229.994C220.702 229.994 191.951 258.746 191.951 294.087C191.951 299.61 196.428 304.087 201.951 304.087C207.474 304.087 211.951 299.61 211.951 294.087C211.951 269.774 231.731 249.994 256.044 249.994C280.357 249.994 300.136 269.774 300.136 294.087C300.136 299.61 304.613 304.087 310.136 304.087C315.659 304.087 320.136 299.61 320.136 294.087C320.136 258.745 291.384 229.994 256.043 229.994Z" fill="#171EB6"/>
<path d="M348.38 255.39C332.733 218.093 296.489 193.994 256.045 193.994C200.854 193.994 155.953 238.895 155.953 294.087C155.953 299.61 160.43 304.087 165.953 304.087C171.476 304.087 175.951 299.61 175.951 294.087C175.951 249.924 211.881 213.994 256.044 213.994C288.41 213.994 317.414 233.28 329.937 263.127C332.074 268.22 337.935 270.617 343.027 268.48C348.12 266.343 350.516 260.482 348.38 255.39Z" fill="#171EB6"/>
<path d="M346.137 283.743C346.122 283.743 346.108 283.743 346.093 283.743C340.571 283.767 336.113 288.263 336.136 293.786V294.086C336.136 299.609 340.613 304.086 346.136 304.086C351.659 304.086 356.136 299.609 356.136 294.086V293.7C356.112 288.193 351.64 283.743 346.137 283.743Z" fill="#171EB6"/>
<path d="M255.987 0.00195312C235.585 0.00195312 218.987 16.6 218.987 37.002C218.987 53.939 230.429 68.244 245.987 72.618V128.136C245.987 133.659 250.464 138.136 255.987 138.136C261.51 138.136 265.987 133.659 265.987 128.136V72.619C281.544 68.245 292.987 53.94 292.987 37.003C292.987 16.601 276.389 0.00195312 255.987 0.00195312ZM255.987 54.003C246.613 54.003 238.987 46.377 238.987 37.003C238.987 27.629 246.613 20.003 255.987 20.003C265.361 20.003 272.987 27.629 272.987 37.003C272.987 46.377 265.361 54.003 255.987 54.003Z" fill="#171EB6"/>
<path d="M475 218.994C458.063 218.994 443.759 230.437 439.384 245.994H383.856C378.333 245.994 373.856 250.471 373.856 255.994C373.856 261.517 378.333 265.994 383.856 265.994H439.384C443.759 281.551 458.063 292.994 475 292.994C495.402 292.994 512 276.396 512 255.994C512 235.591 495.402 218.994 475 218.994ZM475 272.993C465.626 272.993 458 265.367 458 255.993C458 246.619 465.626 238.993 475 238.993C484.374 238.993 492 246.619 492 255.993C492 265.367 484.374 272.993 475 272.993Z" fill="#171EB6"/>
<path d="M186.554 172.404L133.408 119.258C136.492 113.786 138.143 107.589 138.143 101.136C138.143 91.253 134.294 81.961 127.306 74.973C120.318 67.984 111.026 64.136 101.143 64.136C91.2601 64.136 81.9691 67.986 74.9801 74.973C60.5541 89.399 60.5541 112.873 74.9801 127.299C81.9691 134.288 91.2601 138.136 101.144 138.136C107.598 138.136 113.794 136.485 119.266 133.401L172.412 186.547C174.365 188.499 176.924 189.476 179.483 189.476C182.042 189.476 184.602 188.499 186.554 186.547C190.459 182.643 190.459 176.31 186.554 172.404ZM113.167 113.156C113.166 113.157 113.165 113.157 113.165 113.158C113.164 113.159 113.164 113.16 113.163 113.161C109.952 116.37 105.685 118.138 101.145 118.138C96.6041 118.138 92.3351 116.37 89.1241 113.159C82.4951 106.53 82.4951 95.745 89.1231 89.117C92.3341 85.906 96.6021 84.138 101.144 84.138C105.686 84.138 109.954 85.906 113.165 89.117C116.376 92.328 118.144 96.596 118.144 101.138C118.144 105.677 116.377 109.945 113.167 113.156Z" fill="#171EB6"/>
<path d="M263.06 152.924C261.2 151.064 258.62 149.994 255.99 149.994C253.35 149.994 250.78 151.064 248.92 152.924C247.05 154.784 245.99 157.364 245.99 159.994C245.99 162.624 247.05 165.204 248.92 167.064C250.78 168.924 253.36 169.994 255.99 169.994C258.62 169.994 261.2 168.924 263.06 167.064C264.92 165.204 265.99 162.624 265.99 159.994C265.99 157.364 264.92 154.783 263.06 152.924Z" fill="#171EB6"/>
<path d="M437.019 74.973C430.031 67.984 420.739 64.136 410.856 64.136C400.973 64.136 391.681 67.985 384.693 74.973C377.704 81.961 373.856 91.253 373.856 101.136C373.856 107.59 375.507 113.786 378.591 119.258L317.928 179.921C314.023 183.826 314.023 190.158 317.928 194.064C319.881 196.017 322.441 196.993 325 196.993C327.559 196.993 330.119 196.017 332.071 194.064L392.734 133.401C398.206 136.486 404.402 138.136 410.856 138.136C420.739 138.136 430.031 134.287 437.019 127.299C451.445 112.874 451.445 89.4 437.019 74.973ZM422.878 113.158C419.667 116.369 415.399 118.137 410.857 118.137C406.317 118.137 402.05 116.37 398.839 113.16C398.838 113.159 398.838 113.158 398.837 113.158C398.836 113.157 398.835 113.156 398.834 113.156C395.625 109.945 393.857 105.678 393.857 101.138C393.856 96.596 395.625 92.328 398.836 89.116C402.047 85.905 406.315 84.137 410.857 84.137C415.399 84.137 419.667 85.905 422.878 89.116C429.506 95.744 429.506 106.528 422.878 113.158Z" fill="#171EB6"/>
<path d="M128 245.994H72.616C68.241 230.437 53.937 218.994 37 218.994C16.598 218.994 0 235.592 0 255.994C0 276.396 16.598 292.994 37 292.994C53.937 292.994 68.241 281.551 72.616 265.994H128C133.523 265.994 138 261.517 138 255.994C138 250.471 133.523 245.994 128 245.994ZM37 272.993C27.626 272.993 20 265.367 20 255.993C20 246.619 27.626 238.993 37 238.993C46.374 238.993 54 246.619 54 255.993C54 265.367 46.374 272.993 37 272.993Z" fill="#171EB6"/>
</svg>
